<?xml version="1.0" encoding="UTF-8" standalone="no"?>
<svg
   xmlns:dc="http://purl.org/dc/elements/1.1/"
   xmlns:cc="http://creativecommons.org/ns#"
   xmlns:rdf="http://www.w3.org/1999/02/22-rdf-syntax-ns#"
   xmlns:svg="http://www.w3.org/2000/svg"
   xmlns="http://www.w3.org/2000/svg"
   xmlns:sodipodi="http://sodipodi.sourceforge.net/DTD/sodipodi-0.dtd"
   xmlns:inkscape="http://www.inkscape.org/namespaces/inkscape"
   version="1.0"
   width="600.000000pt"
   height="143.000000pt"
   viewBox="0 0 600.000000 143.000000"
   preserveAspectRatio="xMidYMid meet"
   id="svg3901"
   sodipodi:docname="logo3.svg"
   inkscape:version="0.92.3 (2405546, 2018-03-11)">
  <defs
     id="defs3905" />
  <sodipodi:namedview
     pagecolor="#ffffff"
     bordercolor="#666666"
     borderopacity="1"
     objecttolerance="10"
     gridtolerance="10"
     guidetolerance="10"
     inkscape:pageopacity="0"
     inkscape:pageshadow="2"
     inkscape:window-width="1920"
     inkscape:window-height="1017"
     id="namedview3903"
     showgrid="false"
     inkscape:zoom="2.20625"
     inkscape:cx="400"
     inkscape:cy="95.333333"
     inkscape:window-x="-8"
     inkscape:window-y="-8"
     inkscape:window-maximized="1"
     inkscape:current-layer="svg3901" />
  <metadata
     id="metadata3891">
Created by potrace 1.15, written by Peter Selinger 2001-2017
<rdf:RDF>
  <cc:Work
     rdf:about="">
    <dc:format>image/svg+xml</dc:format>
    <dc:type
       rdf:resource="http://purl.org/dc/dcmitype/StillImage" />
    <dc:title></dc:title>
  </cc:Work>
</rdf:RDF>
</metadata>
  <g
     transform="translate(0.000000,143.000000) scale(0.100000,-0.100000)"
     fill="#000000"
     stroke="none"
     id="g3899">
    <path
       d="M1248 1403 c-36 -6 -80 -58 -76 -92 2 -20 13 -30 53 -46 28 -11 55 -25 62 -31 6 -6 55 -28 107 -49 53 -21 96 -41 96 -46 0 -4 10 -11 23 -14 38 -12 192 -79 197 -87 11 -14 63 -29 72 -20 6 6 12 37 15 71 7 72 -6 92 -77 123 -24 11 -47 23 -50 27 -3 4 -36 20 -75 35 -38 16 -85 36 -103 47 -45 26 -161 75 -192 81 -14 2 -37 3 -52 1z"
       id="path3893" />
    <path
       d="M1103 1186 c-18 -41 -33 -79 -33 -84 0 -6 -4 -12 -8 -14 -10 -4 -62 -115 -62 -133 0 -7 -10 -27 -23 -46 -12 -19 -40 -76 -61 -127 -22 -51 -43 -95 -48 -98 -4 -3 -8 -15 -8 -27 0 -18 14 -27 76 -51 42 -16 82 -35 89 -43 8 -7 18 -13 23 -13 10 0 126 -51 237 -105 119 -57 173 -78 188 -72 8 3 27 37 41 76 15 38 30 71 34 73 4 2 27 50 51 108 25 58 48 107 51 110 4 3 24 46 45 95 21 50 44 99 51 110 23 32 17 39 -51 64 -36 14 -65 28 -65 31 0 4 -17 14 -37 22 -109 45 -169 72 -173 77 -6 7 -145 67 -176 76 -12 3 -32 14 -44 25 -43 37 -62 27 -97 -54z"
       id="path3895" />
    <path
       d="M816 570 c-9 -22 -16 -63 -16 -91 0 -41 5 -54 25 -73 14 -13 37 -27 52 -31 14 -3 31 -12 38 -19 7 -7 52 -28 99 -46 47 -19 86 -37 86 -41 0 -4 42 -24 93 -44 145 -59 208 -47 238 44 7 20 17 39 23 43 6 4 8 9 6 11 -8 8 -188 97 -196 97 -4 0 -48 20 -98 44 -50 24 -116 55 -146 67 -30 13 -57 27 -60 31 -6 7 -106 48 -119 48 -5 0 -16 -18 -25 -40z"
       id="path3897" />
  </g>
  <path
     style="fill:#ff0000;stroke-width:0.4532578"
     d="m 191.26804,139.83428 c -4.18445,-1.43924 -8.77819,-3.48171 -23.79491,-10.57971 -13.02871,-6.15832 -23.87782,-10.94591 -26.96321,-11.89856 -0.99717,-0.30789 -2.45772,-1.04097 -3.24567,-1.62905 -1.99846,-1.49158 -6.7945,-3.84397 -12.32837,-6.04692 -10.7359,-4.27379 -11.66269,-5.47932 -8.43986,-10.97824 0.87734,-1.496956 3.10454,-6.120512 4.94932,-10.274565 5.47892,-12.337346 6.80366,-15.08912 9.02845,-18.754099 1.1644,-1.918146 2.72292,-5.341482 3.46339,-7.607411 1.68989,-5.171265 5.76119,-13.71977 7.63975,-16.041176 0.78425,-0.969123 1.4259,-2.05223 1.4259,-2.406905 0,-0.354675 0.90634,-2.857753 2.01409,-5.562396 6.62919,-16.185668 8.42607,-17.656526 15.11293,-12.370871 1.55183,1.226648 4.7902,2.775515 10.57203,5.056446 4.58422,1.808476 12.00634,5.097434 16.49359,7.308795 4.48725,2.21136 12.71085,5.960848 18.27465,8.332195 5.64109,2.40428 10.76366,4.880171 11.58006,5.596984 0.80523,0.706995 3.59579,2.144616 6.20127,3.194713 7.01802,2.828511 10.60581,4.722737 10.7858,5.694533 0.0859,0.463921 -0.96881,3.013496 -2.34388,5.665723 -1.37506,2.652227 -3.86508,7.979379 -5.53337,11.838121 -1.66829,3.858738 -4.52628,9.977718 -6.3511,13.597734 -1.82482,3.620011 -5.1787,10.865129 -7.45308,16.100259 -2.27437,5.23512 -4.93211,10.84419 -5.90607,12.46459 -0.97396,1.62039 -2.99881,5.89491 -4.49967,9.49892 -3.3743,8.10272 -4.87175,10.63137 -6.38547,10.78277 -0.61436,0.0615 -2.54782,-0.38039 -4.29657,-0.98188 z"
     id="path3907"
     inkscape:connector-curvature="0"
     transform="scale(0.74999999)" />
  <path
     style="fill:#ff0000;stroke-width:0.4532578"
     d="m 173.78783,164.97431 c -8.05105,-1.46086 -18.80992,-5.73277 -29.19859,-11.59359 -1.49576,-0.84384 -5.98301,-2.87837 -9.97168,-4.5212 -3.98866,-1.64282 -8.47592,-3.68236 -9.97167,-4.53232 -1.49575,-0.84995 -3.84136,-2.07089 -5.21246,-2.7132 -7.9111,-3.706 -9.85491,-5.08035 -11.44525,-8.09221 -0.86152,-1.63159 -0.98688,-2.54707 -0.94048,-6.86834 0.061,-5.68094 1.16562,-10.6474 3.2089,-14.42754 1.5764,-2.91641 2.15817,-2.94475 8.49694,-0.41385 4.48161,1.78938 5.28843,2.17268 12.28591,5.83684 1.96796,1.03051 4.84818,2.40788 6.40047,3.06082 1.5523,0.65295 8.28318,3.75826 14.95751,6.90068 6.67433,3.14243 13.40192,6.19655 14.9502,6.78694 3.41559,1.30244 18.25401,8.4346 23.51884,11.30446 l 3.81093,2.07734 -1.33569,1.67511 c -0.73463,0.92132 -1.9811,3.3324 -2.76993,5.35796 -1.8011,4.62491 -4.12401,7.73886 -6.77575,9.08316 -2.32112,1.1767 -6.80526,1.66011 -10.0082,1.07894 z"
     id="path3909"
     inkscape:connector-curvature="0"
     transform="scale(0.74999999)" />
  <path
     style="fill:#ff0000;stroke-width:0.4532578"
     d="m 233.20113,54.543051 c -1.3711,-0.364446 -3.56493,-1.396514 -4.87518,-2.293489 -2.52937,-1.731562 -16.71842,-8.119894 -24.05105,-10.8285 -2.41352,-0.891531 -4.71019,-1.996051 -5.10371,-2.454488 -0.99642,-1.160793 -4.73126,-2.977719 -14.38398,-6.997522 C 175.79459,28.224139 174,27.37642 170.89142,25.405017 c -1.12137,-0.711152 -4.29148,-2.266663 -7.04468,-3.456693 -5.82732,-2.518768 -7.24617,-3.828317 -7.24617,-6.687966 0,-3.353784 2.77784,-7.4655398 6.88197,-10.1866963 2.04173,-1.3537239 5.84227,-1.7816165 9.59951,-1.0807827 3.76864,0.7029617 13.14156,4.5400446 23.17857,9.488845 4.73655,2.335376 11.97734,5.662391 16.09065,7.393365 4.11332,1.730974 8.60057,3.827199 9.97168,4.658278 1.3711,0.831078 4.97898,2.771422 8.01751,4.311874 8.43724,4.277452 9.5377,6.048267 9.03694,14.541917 -0.31668,5.371522 -1.25179,9.897899 -2.16427,10.476129 -0.78215,0.495642 -1.01139,0.477344 -4.012,-0.320236 z"
     id="path3911"
     inkscape:connector-curvature="0"
     transform="scale(0.74999999)" />
</svg>
