<?xml version="1.0" encoding="UTF-8" standalone="no"?>
<svg
   xmlns:dc="http://purl.org/dc/elements/1.1/"
   xmlns:cc="http://creativecommons.org/ns#"
   xmlns:rdf="http://www.w3.org/1999/02/22-rdf-syntax-ns#"
   xmlns:svg="http://www.w3.org/2000/svg"
   xmlns="http://www.w3.org/2000/svg"
   xmlns:sodipodi="http://sodipodi.sourceforge.net/DTD/sodipodi-0.dtd"
   xmlns:inkscape="http://www.inkscape.org/namespaces/inkscape"
   version="1.0"
   width="600.000000pt"
   height="162.000000pt"
   viewBox="0 0 600.000000 162.000000"
   preserveAspectRatio="xMidYMid meet"
   id="svg4096"
   sodipodi:docname="logo4.svg"
   inkscape:version="0.92.3 (2405546, 2018-03-11)">
  <defs
     id="defs4100" />
  <sodipodi:namedview
     pagecolor="#ffffff"
     bordercolor="#666666"
     borderopacity="1"
     objecttolerance="10"
     gridtolerance="10"
     guidetolerance="10"
     inkscape:pageopacity="0"
     inkscape:pageshadow="2"
     inkscape:window-width="1920"
     inkscape:window-height="1017"
     id="namedview4098"
     showgrid="false"
     inkscape:zoom="1.76"
     inkscape:cx="233.67801"
     inkscape:cy="86.072502"
     inkscape:window-x="-8"
     inkscape:window-y="-8"
     inkscape:window-maximized="1"
     inkscape:current-layer="svg4096" />
  <metadata
     id="metadata4072">
Created by potrace 1.15, written by Peter Selinger 2001-2017
<rdf:RDF>
  <cc:Work
     rdf:about="">
    <dc:format>image/svg+xml</dc:format>
    <dc:type
       rdf:resource="http://purl.org/dc/dcmitype/StillImage" />
    <dc:title></dc:title>
  </cc:Work>
</rdf:RDF>
</metadata>
  <g
     transform="translate(0.000000,162.000000) scale(0.100000,-0.100000)"
     fill="#000000"
     stroke="none"
     id="g4094">
    <path
       d="M758 1589 c-29 -16 -40 -30 -49 -61 -16 -62 -4 -75 64 -70 10 1 15 -3 12 -8 -4 -7 3 -9 22 -5 21 5 24 4 13 -4 -8 -5 -12 -12 -10 -14 11 -9 207 -60 232 -60 15 0 24 -5 21 -10 -4 -6 5 -7 23 -3 20 5 25 4 14 -3 -8 -6 -12 -12 -10 -14 12 -9 196 -59 225 -60 18 -1 31 -6 27 -11 -3 -5 8 -6 24 -2 20 5 25 4 14 -3 -18 -12 -13 -17 26 -25 31 -7 32 -6 44 43 26 108 -9 148 -172 197 -62 19 -121 33 -131 30 -10 -2 -14 0 -11 6 5 7 -2 9 -19 4 -20 -5 -25 -3 -21 7 3 10 -27 23 -108 47 -145 42 -183 46 -230 19z"
       id="path4074" />
    <path
       d="M670 1394 c-6 -16 -15 -38 -20 -49 -23 -47 -80 -268 -75 -288 5 -17 4 -19 -4 -7 -8 12 -13 8 -26 -22 -8 -21 -15 -42 -15 -49 0 -6 -12 -49 -26 -95 -14 -48 -23 -94 -19 -107 5 -18 4 -19 -5 -7 -9 12 -10 9 -6 -15 5 -21 4 -26 -3 -15 -13 19 -21 10 -27 -31 l-6 -34 106 -28 c58 -16 110 -25 117 -21 8 5 9 3 4 -6 -6 -10 -1 -11 21 -6 20 5 25 4 14 -3 -8 -6 -12 -12 -10 -15 8 -7 203 -59 228 -60 12 -1 22 -5 22 -10 0 -4 9 -6 20 -3 11 3 18 1 15 -3 -3 -5 2 -13 12 -18 32 -16 194 -55 201 -48 4 4 7 25 7 46 0 21 3 34 7 27 4 -6 9 -9 11 -7 13 18 77 269 72 285 -6 16 -5 17 4 5 5 -8 11 -12 13 -10 12 16 72 241 72 268 0 18 3 27 7 21 9 -16 25 15 33 66 l7 40 -65 17 c-36 10 -73 15 -83 11 -11 -4 -14 -3 -9 6 6 9 0 10 -21 6 -21 -5 -24 -4 -13 4 8 5 12 12 10 14 -14 12 -262 76 -275 71 -10 -4 -13 -2 -10 7 4 10 -25 23 -107 46 -174 50 -166 50 -178 17z"
       id="path4076" />
    <path
       d="M1510 655 l0 -285 30 0 30 0 0 210 c0 116 3 210 8 210 4 -1 25 -37 47 -80 22 -44 42 -80 45 -80 3 0 24 -36 45 -80 37 -74 42 -80 72 -80 25 0 33 5 41 28 5 16 16 35 24 43 8 8 32 48 54 89 21 41 45 81 53 90 7 8 20 28 27 45 12 26 13 3 14 -182 l0 -213 35 0 35 0 0 285 0 285 -38 0 c-35 0 -41 -4 -58 -37 -10 -21 -25 -44 -33 -52 -8 -9 -20 -31 -28 -50 -8 -19 -30 -59 -48 -87 -19 -29 -43 -71 -55 -94 l-21 -41 -24 35 c-13 19 -38 64 -56 100 -18 36 -36 66 -39 66 -3 0 -24 36 -46 80 -38 79 -40 80 -76 80 l-38 0 0 -285z"
       id="path4078" />
    <path
       d="M2797 933 c-4 -3 -7 -132 -7 -285 l0 -278 35 0 35 0 0 130 0 130 135 0 c134 0 135 0 135 23 0 42 -17 47 -147 47 l-123 0 0 85 0 85 160 0 160 0 0 35 0 35 -188 0 c-104 0 -192 -3 -195 -7z"
       id="path4080" />
    <path
       d="M2295 800 c-47 -9 -125 -48 -125 -62 0 -7 5 -20 10 -28 8 -13 17 -12 72 8 35 12 71 22 80 22 35 0 87 -33 93 -59 3 -14 8 -34 11 -43 5 -16 -2 -17 -74 -11 -94 7 -145 -7 -184 -50 -53 -58 -31 -174 37 -203 49 -20 128 -18 180 6 l45 20 20 -20 c11 -11 31 -20 45 -20 22 0 25 4 25 40 0 23 -6 42 -14 47 -11 6 -15 39 -18 140 -3 124 -4 133 -28 158 -44 48 -110 68 -175 55z m115 -239 c50 -14 38 -82 -21 -111 -77 -40 -159 -21 -175 39 -7 24 16 51 61 71 24 10 99 11 135 1z"
       id="path4082" />
    <path
       d="M4347 802 c-16 -2 -51 -17 -78 -32 l-49 -29 0 29 c0 28 -3 30 -35 30 l-35 0 0 -215 0 -215 35 0 35 0 0 132 0 132 50 48 c39 38 57 48 83 48 68 0 72 -9 75 -194 l3 -166 40 0 39 0 0 160 c0 165 -14 240 -46 240 -7 0 -17 6 -21 13 -9 16 -55 25 -96 19z"
       id="path4084" />
    <path
       d="M2610 571 l0 -228 -25 -27 c-22 -24 -30 -26 -68 -21 -34 5 -46 3 -57 -10 -13 -15 -11 -20 15 -41 38 -30 95 -32 142 -3 60 37 63 52 63 319 l0 240 -35 0 -35 0 0 -229z"
       id="path4086" />
    <path
       d="M3280 761 c-63 -44 -89 -94 -89 -176 -1 -75 16 -124 59 -166 42 -41 90 -59 163 -59 136 0 223 131 188 283 -12 54 -53 117 -75 117 -7 0 -25 9 -39 20 -19 15 -40 20 -89 20 -57 0 -69 -4 -118 -39z m180 -41 c27 -15 80 -106 80 -140 0 -42 -42 -111 -81 -133 -41 -22 -111 -17 -142 11 -28 24 -47 74 -47 123 0 50 40 126 73 139 30 12 94 12 117 0z"
       id="path4088" />
    <path
       d="M3680 635 c0 -224 18 -264 124 -273 65 -5 121 12 153 46 l23 25 0 -25 c0 -17 8 -28 25 -36 52 -24 58 -18 51 49 -3 34 -6 133 -6 220 l0 159 -40 0 -40 0 0 -130 c0 -161 -10 -192 -72 -220 -58 -27 -90 -25 -118 5 -23 25 -24 34 -28 185 l-4 160 -34 0 -34 0 0 -165z"
       id="path4090" />
    <path
       d="M405 575 c-33 -122 -4 -170 126 -209 48 -15 95 -24 105 -20 16 5 17 4 4 -6 -12 -9 -10 -11 12 -6 22 5 26 3 22 -9 -4 -8 -3 -15 0 -15 3 0 56 -14 117 -30 61 -17 115 -27 121 -24 7 5 8 2 3 -6 -6 -10 -2 -11 18 -6 20 5 25 3 21 -8 -3 -8 4 -16 18 -20 47 -12 85 -6 114 19 16 14 32 25 36 25 4 0 15 26 24 58 9 31 19 64 22 72 5 13 3 13 -10 2 -10 -8 -19 -9 -22 -3 -3 5 0 11 6 14 7 2 11 6 8 9 -15 14 -294 88 -310 83 -14 -5 -18 -2 -15 8 4 10 -27 23 -120 51 -69 20 -135 34 -145 31 -15 -5 -18 -2 -14 8 4 10 -11 19 -54 31 -32 9 -61 16 -64 16 -3 0 -13 -29 -23 -65z"
       id="path4092" />
  </g>
  <path
     style="fill:#ff0000;stroke-width:0.56818181"
     d="m 150.43938,154.102 c -6.03474,-1.30496 -15.13833,-3.82033 -17.77585,-4.91155 -1.02672,-0.42478 -2.10523,-1.39954 -2.39669,-2.16615 -0.45136,-1.18717 -0.7876,-1.34227 -2.26797,-1.0462 -1.14698,0.22939 -2.07097,0.0605 -2.71696,-0.49661 -0.53839,-0.46433 -3.23499,-1.28157 -5.99243,-1.81609 -4.93115,-0.9559 -19.05825,-4.64561 -24.432667,-6.38131 l -2.741655,-0.88543 1.3212,-1.43769 1.321201,-1.43767 -3.02941,0.38692 c -2.746768,0.35082 -2.999303,0.29175 -2.706711,-0.63313 0.28224,-0.89215 -0.08593,-1.03434 -2.936499,-1.13408 -2.983037,-0.10437 -26.041715,-5.5426 -26.943092,-6.35434 -0.536652,-0.48328 0.926236,-7.93306 1.712108,-8.71893 0.472034,-0.47204 0.95756,-0.35325 1.865473,0.45641 l 1.227356,1.09453 -0.408401,-2.84091 c -0.331501,-2.30598 -0.271216,-2.70718 0.32016,-2.13068 1.241779,1.21053 1.454928,0.81286 1.218167,-2.27273 -0.161657,-2.10679 0.279218,-4.90216 1.500995,-9.51704 5.0383,-19.030636 5.85946,-21.876868 6.900206,-23.916899 1.287773,-2.524243 1.455027,-2.592958 2.982036,-1.225151 1.082707,0.969827 1.1001,0.94842 0.706123,-0.869117 -0.822182,-3.792966 5.363959,-28.070202 10.283963,-40.358952 1.462413,-3.652687 2.929317,-6.989902 3.259787,-7.416034 0.937242,-1.208546 4.429306,-0.541552 18.69353,3.570516 14.24833,4.107486 17.45648,5.423166 17.45648,7.158999 0,0.948799 0.38726,1.124816 2.47473,1.124816 4.21495,0 33.75585,7.681335 35.30936,9.181275 0.37513,0.362191 0.23034,0.73921 -0.42613,1.109616 -1.92166,1.084269 -1.10025,1.785838 1.6143,1.378766 2.35609,-0.353317 2.57679,-0.290807 2.2798,0.645715 -0.29658,0.935193 0.0745,1.04257 3.78342,1.094705 3.65761,0.05141 14.81498,2.42162 16.63961,3.534817 0.45265,0.276157 0.35739,1.746863 -0.33771,5.214196 -1.32649,6.616899 -2.41025,9.090276 -3.82139,8.721256 -0.9621,-0.251594 -1.14624,0.11378 -1.4774,2.931414 -0.69076,5.877373 -8.20662,33.826142 -9.45002,35.141282 -0.25331,0.26793 -0.74893,-0.0516 -1.10138,-0.71022 -0.85839,-1.60392 -1.84169,-1.52749 -1.43042,0.11118 0.40253,1.60379 -2.32775,14.26255 -5.72545,26.54567 -2.87806,10.40459 -3.41484,11.70308 -4.47436,10.82376 -1.08585,-0.90118 -1.46353,-0.15554 -1.53782,3.03604 -0.037,1.58854 -0.22995,3.6553 -0.42883,4.5928 -0.46064,2.17132 -1.56617,2.2807 -8.31076,0.82223 z"
     id="path4102"
     inkscape:connector-curvature="0"
     transform="scale(0.75)" />
  <path
     style="fill:#ff0000;stroke-width:0.56818181"
     d="m 130.50342,187.1191 c -2.55717,-0.61133 -3.07541,-1.06664 -3.07541,-2.702 0,-1.42577 -0.0782,-1.4568 -2.84695,-1.12889 -2.6938,0.31904 -2.81499,0.27745 -2.25274,-0.77313 0.54641,-1.02099 0.39835,-1.11082 -1.84055,-1.11663 -2.55179,-0.007 -8.17065,-1.22537 -22.233287,-4.82242 l -8.434894,-2.15755 0.324098,-1.62049 c 0.349455,-1.74727 0.233892,-1.80927 -3.028377,-1.62472 -1.654517,0.0936 -1.853682,-0.0177 -1.276337,-0.71337 0.584578,-0.70438 0.04323,-0.87215 -3.721388,-1.15334 -8.031783,-0.59992 -20.338424,-5.03072 -24.762896,-8.91545 -5.021588,-4.40902 -5.909138,-10.67621 -3.002942,-21.20448 1.955662,-7.08478 2.572727,-8.43375 3.710959,-8.1126 0.494669,0.13957 2.944853,0.81199 5.444853,1.49426 7.225733,1.97195 8.715341,2.70065 8.9158,4.36148 0.163845,1.35747 0.394409,1.45935 3.5842,1.58371 5.815449,0.22674 28.740721,6.64351 32.473501,9.08932 0.73332,0.48049 1.33332,1.39941 1.33332,2.04203 0,0.9794 0.25308,1.11283 1.56447,0.82479 2.67508,-0.58754 28.94578,5.9411 39.2161,9.74575 2.224,0.82389 2.35546,0.98006 1.5625,1.85627 -1.8227,2.01407 -0.0585,4.09403 1.852,2.18351 1.40351,-1.4035 1.28369,0.18694 -0.44253,5.87431 -3.42822,11.29493 -3.37278,11.22181 -12.1021,15.96281 -2.98287,1.62003 -6.93242,1.99002 -10.9614,1.02683 z"
     id="path4104"
     inkscape:connector-curvature="0"
     transform="scale(0.75)" />
  <path
     style="fill:#c8b7b7;stroke-width:0.56818181"
     d="m 185.95074,50.640163 c -2.66335,-0.76922 -3.39323,-1.541184 -2.13068,-2.253557 1.79737,-1.014142 1.05941,-1.62811 -1.53027,-1.273154 -1.84293,0.252601 -2.75327,0.117364 -3.37149,-0.500864 -0.46579,-0.465793 -2.20615,-1.024801 -3.86746,-1.242239 -4.63174,-0.606219 -27.37021,-6.512617 -29.0576,-7.547816 -0.25788,-0.158205 0.12564,-0.928721 0.85227,-1.712258 l 1.32114,-1.424613 -2.90578,0.390893 c -2.27646,0.306235 -2.97425,0.212462 -3.22193,-0.432977 -0.19642,-0.511875 -1.55146,-0.978213 -3.57817,-1.231433 -3.64487,-0.455398 -18.32226,-4.05675 -25.68062,-6.301186 l -4.79761,-1.463362 1.34205,-1.459876 1.34206,-1.459876 -3.03266,0.387353 c -2.2328,0.28519 -2.92542,0.213843 -2.62607,-0.270517 0.68088,-1.101686 -0.96846,-1.649349 -4.99468,-1.658483 -6.004202,-0.01362 -7.157304,-1.913743 -5.200978,-8.570348 1.280419,-4.3567599 3.073202,-6.4297699 7.404768,-8.5621921 5.97439,-2.9411808 10.4019,-2.5316747 28.32635,2.6199352 11.35302,3.2629362 15.06645,4.8874539 15.06645,6.5911239 0,1.160657 0.18392,1.2166 2.84091,0.864137 2.33854,-0.310218 2.84091,-0.222688 2.84091,0.494983 0,0.628354 0.59506,0.872346 2.13068,0.873646 2.73528,0.0023 15.14787,3.278676 23.29944,6.149997 9.7123,3.421073 13.91939,6.214196 16.07873,10.674799 1.1003,2.272911 1.2173,3.207037 0.94128,7.515149 -0.17336,2.705788 -0.78277,6.325865 -1.35426,8.044615 -0.935,2.81207 -1.20974,3.135388 -2.7436,3.228735 -0.9375,0.05705 -2.59943,-0.154722 -3.69318,-0.470615 z"
     id="path4106"
     inkscape:connector-curvature="0"
     transform="scale(0.75)" />
  <path
     style="fill:#c8b7b7;stroke-width:0.56818181"
     d="M 201.85983,128.84795 V 91.063861 h 4.0044 c 5.0606,0 5.43723,0.37293 10.53277,10.429389 2.08128,4.10758 4.63317,8.63344 5.67086,10.05744 1.03768,1.42401 3.85076,6.28196 6.25126,10.79546 4.18598,7.87057 8.87243,15.52313 9.89248,16.15356 0.26613,0.16448 1.70005,-1.93989 3.1865,-4.67636 1.48644,-2.73647 4.41664,-7.7879 6.51155,-11.2254 2.09491,-3.4375 5.02073,-8.67898 6.50183,-11.64773 1.48109,-2.96875 3.77853,-6.93181 5.10541,-8.80681 1.32689,-1.875 2.98208,-4.530077 3.67821,-5.900166 2.29191,-4.510862 3.35562,-5.179383 8.24118,-5.179383 h 4.28719 v 37.784089 37.78409 h -4.17774 -4.17773 l -0.41575,-26.21506 c -0.22867,-14.41829 -0.54934,-26.56317 -0.71261,-26.98864 -0.43442,-1.1321 -1.18076,-0.94463 -1.60883,0.40411 -0.20558,0.64773 -1.71707,3.14062 -3.35888,5.53977 -1.6418,2.39915 -4.71932,7.55812 -6.83893,11.46437 -2.11961,3.90625 -4.83209,8.50852 -6.02774,10.22727 -1.19564,1.71875 -3.08536,4.90251 -4.19937,7.07502 -1.11401,2.17252 -2.3405,4.15013 -2.72554,4.39471 -1.37849,0.87563 -5.34325,0.48813 -6.80996,-0.66558 -0.78848,-0.62022 -3.16212,-4.47769 -5.27477,-8.57217 -2.11264,-4.09447 -5.03889,-9.27594 -6.50277,-11.51438 -1.46389,-2.23843 -4.38049,-7.39374 -6.48134,-11.45624 -4.22458,-8.16925 -5.72024,-10.44104 -6.41623,-9.74578 -0.25575,0.25549 -0.54813,12.97184 -0.64975,28.25856 l -0.18475,27.79404 h -3.65047 -3.65048 z"
     id="path4108"
     inkscape:connector-curvature="0"
     transform="scale(0.75)" />
  <path
     style="fill:#c8b7b7;stroke-width:0.56818181"
     d="m 299.10414,166.93384 c -5.43386,-1.23768 -9.27874,-4.67169 -11.19635,-9.99991 -1.17695,-3.27024 -1.31266,-8.61994 -0.30658,-12.08531 1.12866,-3.88758 5.28599,-8.27371 9.83164,-10.37272 l 3.57471,-1.65068 h 11.74085 c 6.45746,0 11.92121,-0.17965 12.14166,-0.39923 0.71683,-0.71401 -1.53722,-8.43674 -2.95383,-10.12028 -1.84652,-2.19447 -7.79665,-5.10549 -10.43562,-5.10549 -1.16024,0 -4.63502,0.78511 -7.72175,1.74468 -12.85894,3.99748 -11.58113,3.77334 -12.8162,2.24809 -0.67119,-0.82888 -1.0262,-2.00756 -0.92128,-3.0587 0.14686,-1.47115 0.72656,-2.01392 4.14799,-3.88368 10.0128,-5.47187 19.44286,-6.47965 27.10051,-2.8962 4.43113,2.07358 8.79728,5.87116 9.98728,8.68672 0.58941,1.39456 0.99286,5.72287 1.35049,14.48864 0.66423,16.28059 1.148,20.14822 2.79957,22.38208 1.51888,2.05439 2.18125,7.68434 1.13424,9.64069 -1.19771,2.23795 -5.74171,1.14328 -8.81362,-2.12325 -0.91784,-0.97598 -1.97268,-1.77452 -2.34408,-1.77452 -0.3714,0 -2.17725,0.66761 -4.01301,1.48357 -1.83576,0.81597 -4.48831,1.84167 -5.89456,2.27935 -3.91215,1.2176 -12.17074,1.47764 -16.39206,0.51615 z m 16.69393,-9.44816 c 4.27242,-1.59851 7.31722,-4.00645 8.71363,-6.89106 1.51875,-3.1373 1.54037,-5.55067 0.0665,-7.42437 -1.80429,-2.29378 -4.61198,-2.95871 -12.49112,-2.95821 -6.33901,4.1e-4 -7.39873,0.14635 -9.86091,1.35803 -1.51725,0.74667 -3.75447,2.30489 -4.97159,3.46271 -1.85338,1.76308 -2.21295,2.47505 -2.21295,4.38181 0,2.51425 1.59908,5.32411 4.07243,7.15591 3.75598,2.78176 10.67999,3.16157 16.68399,0.91518 z"
     id="path4110"
     inkscape:connector-curvature="0"
     transform="scale(0.75)" />
  <path
     style="fill:#c8b7b7;stroke-width:0.56818181"
     d="m 335.27222,185.72367 c -2.72861,-0.73458 -3.552,-1.2178 -6.28171,-3.68656 -1.92087,-1.73723 -1.98928,-3.16741 -0.20737,-4.33496 1.05079,-0.6885 2.64294,-0.85208 7.08939,-0.72837 l 5.73426,0.15955 3.42198,-3.38626 3.42197,-3.38627 v -30.27347 -30.27347 h 4.30426 4.30425 l -0.22515,30.82386 c -0.24108,33.00381 -0.41257,35.05 -3.27423,39.06884 -1.52302,2.13889 -5.88168,4.81755 -9.61566,5.90943 -3.62375,1.05964 -5.06927,1.07759 -8.67199,0.10768 z"
     id="path4112"
     inkscape:connector-curvature="0"
     transform="scale(0.75)" />
  <path
     style="fill:#c8b7b7;stroke-width:0.56818181"
     d="m 372.39909,129.46335 c 0.10966,-20.44278 0.41223,-37.381704 0.67238,-37.642047 0.26015,-0.260343 11.82976,-0.558011 25.71023,-0.661485 l 25.23722,-0.188134 v 4.30062 4.30062 l -21.44886,0.148878 -21.44886,0.148877 -0.15381,11.505681 -0.15381,11.50568 13.22199,0.0114 c 16.068,0.0139 20.09961,0.48372 21.88676,2.55067 1.48468,1.71711 1.67134,4.35902 0.38351,5.42783 -0.67778,0.5625 -5.08924,0.80415 -18.18182,0.99596 l -17.28692,0.25325 v 17.25543 17.25543 h -4.31869 -4.3187 z"
     id="path4114"
     inkscape:connector-curvature="0"
     transform="scale(0.75)" />
  <path
     style="fill:#c8b7b7;stroke-width:0.56818181"
     d="m 446.7796,166.88449 c -5.27954,-1.14481 -9.52137,-3.41893 -13.17753,-7.06474 -5.38106,-5.3658 -7.84795,-11.9786 -7.86874,-21.09311 -0.0267,-11.68688 4.17313,-19.2592 14.21143,-25.62363 4.51544,-2.86285 6.26096,-3.29196 13.27827,-3.26421 6.78521,0.0268 8.92634,0.54564 12.55726,3.04271 1.25,0.85966 2.98362,1.7052 3.85249,1.87898 2.0987,0.41975 5.7046,4.5933 7.84699,9.08228 4.80464,10.06722 4.29768,23.44494 -1.21397,32.0341 -6.21754,9.68919 -17.00111,13.71486 -29.4862,11.00762 z m 12.75069,-9.4836 c 4.67569,-1.37211 11.77964,-11.09731 12.59439,-17.24154 0.54252,-4.09126 -4.65018,-14.7911 -9.28021,-19.12239 -2.83252,-2.64974 -10.57506,-3.35596 -16.47878,-1.50305 -3.6474,1.14474 -8.23788,7.80284 -9.8823,14.33341 -2.05308,8.15352 1.58897,19.19089 7.41252,22.46391 4.15448,2.33495 9.96746,2.73266 15.63438,1.06966 z"
     id="path4116"
     inkscape:connector-curvature="0"
     transform="scale(0.75)" />
  <path
     style="fill:#c8b7b7;stroke-width:0.56818181"
     d="m 504.58176,167.15425 c -8.34467,-1.22336 -11.63895,-5.51607 -12.93874,-16.86022 -0.31313,-2.73284 -0.57142,-12.95886 -0.57398,-22.72449 l -0.005,-17.75568 h 4.26136 4.26136 l 0.0198,5.25568 c 0.0434,11.51758 1.07957,33.29882 1.70157,35.76899 0.70632,2.80505 3.04973,5.6343 5.87832,7.09702 2.52589,1.30619 7.40475,0.67991 12.30735,-1.57984 4.56294,-2.1032 7.37172,-4.92508 8.43516,-8.4745 1.10016,-3.67203 1.73176,-13.04117 1.75229,-25.99349 l 0.0191,-12.07386 h 5.11364 5.11363 l 0.0129,20.88068 c 0.007,11.48438 0.25837,24.03782 0.5584,27.89653 0.75499,9.7099 0.22435,10.4626 -5.4977,7.7984 -3.37981,-1.57364 -4.16451,-2.71408 -4.16451,-6.05249 v -2.3925 l -3.12349,2.95407 c -3.78727,3.58184 -7.81534,5.51322 -13.08732,6.27511 -4.48669,0.64841 -5.50274,0.64644 -10.04453,-0.0194 z"
     id="path4118"
     inkscape:connector-curvature="0"
     transform="scale(0.75)" />
  <path
     style="fill:#c8b7b7;stroke-width:0.56818181"
     d="m 553.56438,138.22295 v -28.40909 h 3.99133 c 3.76164,0 4.02323,0.0839 4.54546,1.45744 0.30476,0.8016 0.55412,2.46353 0.55412,3.69319 0,1.22965 0.12476,2.23573 0.27725,2.23573 0.15249,0 2.5145,-1.28281 5.24891,-2.85069 6.89652,-3.9544 10.23224,-5.10385 14.8114,-5.10385 4.87521,0 7.08397,0.65043 9.54422,2.81056 1.08677,0.95419 2.449,1.73489 3.02719,1.73489 3.81001,0 5.69039,13.59665 5.71654,41.33523 l 0.0109,11.50568 h -5.11364 -5.11363 l -0.0306,-5.25568 c -0.0773,-13.27635 -1.04674,-35.05643 -1.66708,-37.45327 -0.37753,-1.45867 -1.32117,-3.24845 -2.09697,-3.97727 -1.22678,-1.15251 -1.98363,-1.32514 -5.80967,-1.32514 -5.28806,0 -6.44463,0.63971 -13.87805,7.67606 l -4.92672,4.66355 v 17.83588 17.83587 h -4.54546 -4.54545 z"
     id="path4120"
     inkscape:connector-curvature="0"
     transform="scale(0.75)" />
  <path
     style="fill:#ff0000;stroke-width:0.56818181"
     d="m 184.95642,50.029489 c -1.30617,-0.629946 -1.73311,-1.579264 -0.71022,-1.579264 0.3125,0 0.56818,-0.383523 0.56818,-0.852273 0,-0.622826 -0.64499,-0.852273 -2.39578,-0.852273 -1.31768,0 -3.42705,-0.356296 -4.6875,-0.79177 -1.26045,-0.435473 -4.33718,-1.220643 -6.83718,-1.744822 -5.11255,-1.071956 -23.5522,-5.902174 -24.30276,-6.366043 -0.26795,-0.165599 -0.12588,-0.723149 0.31569,-1.238999 1.71817,-2.007174 1.60421,-2.225576 -1.00766,-1.931181 -1.67988,0.189346 -3.18595,-0.02557 -4.47896,-0.639139 -1.07142,-0.508425 -2.38912,-0.924409 -2.92821,-0.924409 -1.79908,0 -16.47432,-3.612884 -26.8388,-6.607422 l -2.99071,-0.864084 1.15207,-1.464623 c 1.21171,-1.540444 1.15992,-2.292229 -0.10411,-1.51102 -1.04401,0.645238 -3.99384,0.256467 -4.70351,-0.619897 -0.32467,-0.400935 -2.31475,-0.877616 -4.4224,-1.059292 -5.339313,-0.46024 -6.111092,-0.973681 -6.111092,-4.065521 0,-3.108119 1.853358,-8.2188249 3.556945,-9.8084128 0.69993,-0.653093 2.678847,-1.909695 4.397597,-2.7924488 5.55431,-2.8527041 12.65946,-2.0512547 30.85292,3.480156 8.01419,2.4365806 11.60637,4.0447806 12.03231,5.3868156 0.23384,0.736761 1.00015,1.018117 2.97658,1.092874 1.46392,0.05537 2.8098,0.340336 2.99082,0.633252 0.18104,0.292916 1.47206,0.697142 2.86895,0.898279 3.66151,0.527221 14.1207,3.332333 20.73229,5.560318 10.40891,3.507607 15.21787,6.486368 17.41058,10.784444 1.05467,2.067332 1.16004,3.012241 0.89672,8.041632 -0.17843,3.407987 -0.6903,6.669796 -1.27329,8.113813 -0.93158,2.307465 -1.07947,2.413064 -3.32798,2.376319 -1.29419,-0.02115 -2.92836,-0.315904 -3.63149,-0.655009 z"
     id="path4128"
     inkscape:connector-curvature="0"
     transform="scale(0.75)" />
</svg>
